<svg width="24" height="22" viewBox="0 0 24 22" fill="none" xmlns="http://www.w3.org/2000/svg">
<path fill-rule="evenodd" clip-rule="evenodd" d="M7 2C7 1.44772 7.44772 1 8 1H16C16.5523 1 17 1.44772 17 2H21C21.5523 2 22 2.44772 22 3C22 3.55228 21.5523 4 21 4H19.0078C19.0272 4.00017 19.0468 4.0009 19.0665 4.00221C19.6176 4.03895 20.0345 4.51546 19.9978 5.06652L19.06 19.133C18.99 20.1836 18.1174 21 17.0644 21H6.93555C5.88263 21 5.01002 20.1836 4.93998 19.133L4.00221 5.06652C3.96548 4.51546 4.38242 4.03895 4.93348 4.00221C4.95317 4.0009 4.97276 4.00017 4.99225 4H3C2.44772 4 2 3.55228 2 3C2 2.44772 2.44772 2 3 2H7ZM5.00974 4C5.52785 4.00449 5.96275 4.40801 5.99779 4.93348L6.93555 19H17.0644L18.0022 4.93348C18.0372 4.40801 18.4721 4.00449 18.9903 4H5.00974ZM10 6C10.5523 6 11 6.44772 11 7V16.5C11 17.0523 10.5523 17.5 10 17.5C9.44772 17.5 9 17.0523 9 16.5V7C9 6.44772 9.44772 6 10 6ZM15 7C15 6.44772 14.5523 6 14 6C13.4477 6 13 6.44772 13 7V16.5C13 17.0523 13.4477 17.5 14 17.5C14.5523 17.5 15 17.0523 15 16.5V7Z" fill="white"/>
</svg>
